<svg width="94" height="17" viewBox="0 0 94 17" fill="none" xmlns="http://www.w3.org/2000/svg">
<path d="M17.2727 2.83371C16.1862 2.88234 16.2099 2.87837 16.0871 2.88836L16.7306 1.10353C16.7306 1.10353 14.722 1.82117 14.2128 1.94955C12.8755 0.782148 10.8877 0.730568 9.46657 1.57889C8.30282 2.27375 7.67818 3.467 7.88652 4.86171C5.62162 4.55646 3.7133 3.51372 2.20666 1.7559L1.73014 1.20004L1.37407 1.83512C0.924043 2.63762 0.774605 3.55519 0.953167 4.41874C1.02644 4.77302 1.15097 5.11091 1.32347 5.4273L0.914687 5.27346L0.866192 5.93683C0.817038 6.6107 1.04805 7.39733 1.48424 8.04086C1.60706 8.2221 1.7652 8.42112 1.96563 8.61746L1.75439 8.58598L2.01215 9.34611C2.35096 10.3448 3.05467 11.1175 3.9679 11.547C3.05585 11.9229 2.31907 12.1628 1.10801 12.5497L0 12.9035L1.02341 13.4469C1.41361 13.6541 2.79242 14.3462 4.15477 14.5538C7.18308 15.0151 10.5926 14.6394 12.888 12.6316C14.8213 10.9405 15.4557 8.53491 15.3239 6.03154C15.304 5.65257 15.4109 5.29086 15.6249 5.01325C16.0536 4.45739 17.2701 2.83742 17.2727 2.83371ZM14.8157 4.4245C14.4602 4.88539 14.2822 5.47402 14.3141 6.08172C14.4471 8.60684 13.7397 10.5651 12.2114 11.9018C10.4262 13.4634 7.54666 14.0764 4.31146 13.5835C3.72556 13.4943 3.12003 13.2945 2.61887 13.0949C3.63424 12.7556 4.41833 12.4532 5.68461 11.8711L7.45231 11.0585L5.50064 10.9372C4.56579 10.8791 3.78737 10.439 3.30887 9.72458C3.56294 9.71024 3.80792 9.67031 4.05185 9.60427L5.91324 9.10075L4.0363 8.65432C3.12425 8.43738 2.60437 7.90737 2.32882 7.50087C2.14789 7.23376 2.02968 6.96011 1.95878 6.70785C2.14696 6.75687 2.36638 6.79181 2.72021 6.82585L4.45747 6.99275L3.08102 5.94989C2.08924 5.19858 1.6918 4.06984 1.98316 2.98473C5.07842 6.10283 8.71265 5.86848 9.07847 5.95091C8.99796 5.19129 8.99585 5.1895 8.97476 5.11718C8.50628 3.50873 9.53299 2.69202 9.99606 2.41556C10.9633 1.8382 12.4987 1.75116 13.5622 2.70239C13.7919 2.90768 14.1025 2.98845 14.3932 2.91831C14.6541 2.85534 14.8682 2.78865 15.0779 2.71608L14.6414 3.92661L15.1986 3.927C15.0935 4.06395 14.9673 4.2279 14.8157 4.4245Z" fill="white"/>
<path d="M40.5302 16.776H52.7425C54.1377 16.776 55.2727 15.6736 55.2727 14.3185V2.45742C55.2727 1.10238 54.1377 0 52.7425 0H40.5302C39.135 0 38 1.10238 38 2.45742V14.3185C38 15.6736 39.135 16.776 40.5302 16.776ZM39.0121 2.45742C39.0121 1.64442 39.6931 0.982966 40.5302 0.982966H52.7425C53.5796 0.982966 54.2606 1.64442 54.2606 2.45742V14.3185C54.2606 15.1315 53.5796 15.793 52.7425 15.793H40.5302C39.6931 15.793 39.0121 15.1315 39.0121 14.3185V2.45742Z" fill="white"/>
<path d="M46.6364 12.8113C49.1476 12.8113 51.1907 10.827 51.1907 8.38798C51.1907 5.94899 49.1476 3.96463 46.6364 3.96463C44.1252 3.96463 42.082 5.94899 42.082 8.38798C42.082 10.827 44.1252 12.8113 46.6364 12.8113ZM46.6364 4.9476C48.5896 4.9476 50.1786 6.49091 50.1786 8.38798C50.1786 10.2851 48.5896 11.8284 46.6364 11.8284C44.6831 11.8284 43.0941 10.2851 43.0941 8.38798C43.0941 6.49091 44.6831 4.9476 46.6364 4.9476Z" fill="white"/>
<path d="M51.4092 4.70905C52.2363 4.70905 52.9092 4.05548 52.9092 3.25218C52.9092 2.44888 52.2363 1.79532 51.4092 1.79532C50.5821 1.79532 49.9092 2.44888 49.9092 3.25218C49.9092 4.05548 50.5821 4.70905 51.4092 4.70905ZM51.4092 2.76656C51.6848 2.76656 51.9092 2.98446 51.9092 3.25218C51.9092 3.51991 51.6848 3.7378 51.4092 3.7378C51.1335 3.7378 50.9092 3.51991 50.9092 3.25218C50.9092 2.98446 51.1335 2.76656 51.4092 2.76656Z" fill="white"/>
<path d="M78.5302 16.776H84.1641V10.8126H82.1399V8.8467H84.1641V6.38928C84.1641 5.03425 85.2991 3.93187 86.6942 3.93187H89.2244V5.8978H87.2003C86.6422 5.8978 86.1882 6.33873 86.1882 6.88076V8.8467H89.1331L88.7957 10.8126H86.1882V16.776H90.7425C92.1377 16.776 93.2727 15.6736 93.2727 14.3185V2.45742C93.2727 1.10238 92.1377 0 90.7425 0H78.5302C77.135 0 76 1.10238 76 2.45742V14.3185C76 15.6736 77.135 16.776 78.5302 16.776ZM77.0121 2.45742C77.0121 1.64442 77.6931 0.982966 78.5302 0.982966H90.7425C91.5796 0.982966 92.2606 1.64442 92.2606 2.45742V14.3185C92.2606 15.1315 91.5796 15.793 90.7425 15.793H87.2003V11.7956H89.6531L90.3278 7.86373H87.2003V6.88076H90.2365V2.9489H86.6942C84.741 2.9489 83.152 4.49221 83.152 6.38928V7.86373H81.1278V11.7956H83.152V15.793H78.5302C77.6931 15.793 77.0121 15.1315 77.0121 14.3185V2.45742Z" fill="white"/>
</svg>
